<svg xmlns="http://www.w3.org/2000/svg" viewBox="0 0 512 512" width="512" height="512">
  <rect x="0" y="0" width="512" height="512" rx="102" fill="#161616"/>
  <circle cx="256" cy="256" r="186" fill="none" stroke="#e8e8e8" stroke-width="12"/>
  <circle cx="256" cy="256" r="158" fill="none" stroke="#3a3a3a" stroke-width="4"/>
  <g stroke="#e8e8e8" stroke-width="10">
    <line x1="256" y1="80" x2="256" y2="104"/>
    <line x1="432" y1="256" x2="408" y2="256"/>
    <line x1="256" y1="432" x2="256" y2="408"/>
    <line x1="80" y1="256" x2="104" y2="256"/>
  </g>
  <g stroke="#8a8a8a" stroke-width="6">
    <line x1="344" y1="103.6" x2="338" y2="114"/>
    <line x1="408.4" y1="168" x2="398" y2="174"/>
    <line x1="408.4" y1="344" x2="398" y2="338"/>
    <line x1="344" y1="408.4" x2="338" y2="398"/>
    <line x1="168" y1="408.4" x2="174" y2="398"/>
    <line x1="103.6" y1="344" x2="114" y2="338"/>
    <line x1="103.6" y1="168" x2="114" y2="174"/>
    <line x1="168" y1="103.6" x2="174" y2="114"/>
  </g>
  <line x1="163" y1="196" x2="163" y2="352" stroke="#4f4f4f" stroke-width="9"/>
  <rect x="148" y="228" width="30" height="100" rx="7" fill="#4f4f4f"/>
  <line x1="256" y1="150" x2="256" y2="320" stroke="#f2f2f2" stroke-width="9"/>
  <rect x="241" y="180" width="30" height="112" rx="7" fill="#f2f2f2"/>
  <line x1="340" y1="182" x2="340" y2="330" stroke="#f2f2f2" stroke-width="9"/>
  <rect x="325" y="212" width="30" height="88" rx="7" fill="#f2f2f2"/>
  <circle cx="256" cy="70" r="26" fill="#1e7d46" transform="rotate(30 256 256)"/>
</svg>
